<?xml version="1.0" encoding="UTF-8" standalone="no"?>
<svg width="1024px" height="768px" viewBox="0 0 1024 768" version="1.1" xmlns="http://www.w3.org/2000/svg" xmlns:xlink="http://www.w3.org/1999/xlink" xmlns:sketch="http://www.bohemiancoding.com/sketch/ns">
    <!-- Generator: Sketch 3.4.3 (16044) - http://www.bohemiancoding.com/sketch -->
    <title>Artboard 1</title>
    <desc>Created with Sketch.</desc>
    <defs>
        <rect id="path-1" x="0" y="0" width="512" height="384"></rect>
        <rect id="path-3" x="0" y="0" width="512" height="384"></rect>
        <rect id="path-5" x="0" y="0" width="512" height="384"></rect>
    </defs>
    <g id="Page-1" stroke="none" stroke-width="1" fill="none" fill-rule="evenodd" sketch:type="MSPage">
        <g id="Artboard-1" sketch:type="MSArtboardGroup">
            <g id="G" sketch:type="MSLayerGroup" transform="translate(512.000000, 384.000000)">
                <mask id="mask-2" sketch:name="Mask" fill="white">
                    <use xlink:href="#path-1"></use>
                </mask>
                <use id="Mask" fill="#66BF39" sketch:type="MSShapeGroup" xlink:href="#path-1"></use>
                <path d="M7.91272727,-25.9090909 C-13.8472727,-25.56 -32.5818182,-7.17454545 -33.9781818,14.9345455 C-35.2581818,37.16 -17.5709091,56.9418182 5.46909091,59.2690909 C28.6254545,61.5963636 47.36,43.2109091 47.36,18.4254545 C47.36,-6.47636364 29.6727273,-26.2581818 7.91272727,-25.9090909 L7.91272727,-25.9090909 Z M23.5054545,20.0545455 C22.5745455,31.5745455 15.36,37.8581818 10.5890909,38.3236364 C-1.39636364,39.72 -11.6363636,28.8981818 -10.9381818,15.0509091 C-10.24,1.20363636 -4.65454545,-7.40727273 6.63272727,-7.64 C17.92,-7.87272727 24.7854545,5.04363636 23.5054545,20.0545455 Z M93.44,-23.6981818 C71.68,-24.0472727 53.9927273,-4.26545455 53.9927273,20.6363636 C53.9927273,45.5381818 72.7272727,63.8072727 95.8836364,61.48 C119.04,59.1527273 136.727273,39.3709091 135.330909,17.1454545 C134.050909,-4.96363636 115.316364,-23.2327273 93.44,-23.6981818 Z M90.7636364,40.6509091 C85.9927273,40.0690909 78.8945455,33.7854545 77.8472727,22.3818182 C76.5672727,7.37090909 83.4327273,-5.54545455 94.72,-5.31272727 C106.007273,-5.08 111.592727,3.53090909 112.290909,17.3781818 C112.989091,31.1090909 102.749091,42.0472727 90.7636364,40.6509091 Z M-160,-44.4109091 L-183.389091,-53.3709091 L-229.003636,-9.85090909 L-229.003636,-64.1927273 L-256,-57.3272727 L-256,70.3236364 L-229.003636,71.2545455 L-229.236364,26.5709091 L-212.596364,10.5127273 L-195.025455,71.2545455 L-171.170909,71.2545455 L-193.163636,-7.98909091 L-160,-44.4109091 Z M-85.8763636,-29.7490909 L-86.3418182,-87 L-109.381818,-80.9490909 L-105.658182,60.5490909 L-82.9672727,61.3636364 L-84.2472727,-11.7127273 C-79.2436364,-13.9236364 -62.8363636,-18.4618182 -62.2545455,-0.425454545 L-60.0436364,25.2909091 L-58.5309091,61.48 L-34.7927273,61.48 L-43.7527273,-1.00727273 C-47.36,-37.5454545 -60.7418182,-37.6618182 -85.8763636,-29.7490909 Z M227.141818,62.1781818 L220.509091,77.7709091 L234.705455,87.5454545 L248.669091,79.2836364 L242.734545,62.1781818 L227.141818,62.1781818 Z M166.865455,-64.1927273 L148.829091,-71.64 L148.829091,-34.2872727 L128.698182,-34.9854545 L132.538182,-8.45454545 L148.829091,-8.45454545 L149.992727,54.7309091 C149.992727,54.7309091 147.432727,77.4218182 182.109091,72.3018182 C182.109091,72.3018182 192.930909,69.0436364 192.581818,61.48 L192.581818,36.5781818 C192.581818,36.5781818 185.250909,40.8836364 177.338182,40.8836364 C169.425455,40.8836364 169.309091,37.0436364 169.309091,37.0436364 L167.214545,-11.8290909 L192.465455,-13.2254545 L192.465455,-29.4 L166.516364,-31.1454545 L166.865455,-64.1927273 Z M256,-63.96 L208.290909,-73.0363636 L237.614545,53.2181818 L256,-63.96 Z M-165.701818,-28.9345455 L-159.418182,-12.4109091 C-143.709091,-21.8363636 -134.865455,-12.4109091 -134.865455,-12.4109091 L-134.981818,-1.82181818 C-181.76,6.44 -169.890909,49.7272727 -169.890909,49.7272727 C-165.12,66.7163636 -149.76,66.1345455 -149.76,66.1345455 L-114.734545,66.1345455 L-114.036364,-12.6436364 C-119.505455,-49.2981818 -165.701818,-28.9345455 -165.701818,-28.9345455 Z M-134.981818,51.0072727 C-134.981818,51.0072727 -151.970909,55.08 -153.832727,38.5563636 C-153.832727,38.5563636 -153.483636,12.9563636 -134.4,15.7490909 L-134.981818,51.0072727 L-134.981818,51.0072727 Z" id="Shape" opacity="0.5" fill="#FFFFFF" sketch:type="MSShapeGroup" mask="url(#mask-2)"></path>
            </g>
            <g id="B" sketch:type="MSLayerGroup" transform="translate(512.000000, 0.000000)">
                <mask id="mask-4" sketch:name="Mask" fill="white">
                    <use xlink:href="#path-3"></use>
                </mask>
                <use id="Mask" fill="#46A3E5" sketch:type="MSShapeGroup" xlink:href="#path-3"></use>
                <path d="M7.91272727,358.090909 C-13.8472727,358.44 -32.5818182,376.825455 -33.9781818,398.934545 C-35.2581818,421.16 -17.5709091,440.941818 5.46909091,443.269091 C28.6254545,445.596364 47.36,427.210909 47.36,402.425455 C47.36,377.523636 29.6727273,357.741818 7.91272727,358.090909 L7.91272727,358.090909 Z M23.5054545,404.054545 C22.5745455,415.574545 15.36,421.858182 10.5890909,422.323636 C-1.39636364,423.72 -11.6363636,412.898182 -10.9381818,399.050909 C-10.24,385.203636 -4.65454545,376.592727 6.63272727,376.36 C17.92,376.127273 24.7854545,389.043636 23.5054545,404.054545 Z M93.44,360.301818 C71.68,359.952727 53.9927273,379.734545 53.9927273,404.636364 C53.9927273,429.538182 72.7272727,447.807273 95.8836364,445.48 C119.04,443.152727 136.727273,423.370909 135.330909,401.145455 C134.050909,379.036364 115.316364,360.767273 93.44,360.301818 Z M90.7636364,424.650909 C85.9927273,424.069091 78.8945455,417.785455 77.8472727,406.381818 C76.5672727,391.370909 83.4327273,378.454545 94.72,378.687273 C106.007273,378.92 111.592727,387.530909 112.290909,401.378182 C112.989091,415.109091 102.749091,426.047273 90.7636364,424.650909 Z M-160,339.589091 L-183.389091,330.629091 L-229.003636,374.149091 L-229.003636,319.807273 L-256,326.672727 L-256,454.323636 L-229.003636,455.254545 L-229.236364,410.570909 L-212.596364,394.512727 L-195.025455,455.254545 L-171.170909,455.254545 L-193.163636,376.010909 L-160,339.589091 Z M-85.8763636,354.250909 L-86.3418182,297 L-109.381818,303.050909 L-105.658182,444.549091 L-82.9672727,445.363636 L-84.2472727,372.287273 C-79.2436364,370.076364 -62.8363636,365.538182 -62.2545455,383.574545 L-60.0436364,409.290909 L-58.5309091,445.48 L-34.7927273,445.48 L-43.7527273,382.992727 C-47.36,346.454545 -60.7418182,346.338182 -85.8763636,354.250909 Z M227.141818,446.178182 L220.509091,461.770909 L234.705455,471.545455 L248.669091,463.283636 L242.734545,446.178182 L227.141818,446.178182 Z M166.865455,319.807273 L148.829091,312.36 L148.829091,349.712727 L128.698182,349.014545 L132.538182,375.545455 L148.829091,375.545455 L149.992727,438.730909 C149.992727,438.730909 147.432727,461.421818 182.109091,456.301818 C182.109091,456.301818 192.930909,453.043636 192.581818,445.48 L192.581818,420.578182 C192.581818,420.578182 185.250909,424.883636 177.338182,424.883636 C169.425455,424.883636 169.309091,421.043636 169.309091,421.043636 L167.214545,372.170909 L192.465455,370.774545 L192.465455,354.6 L166.516364,352.854545 L166.865455,319.807273 Z M256,320.04 L208.290909,310.963636 L237.614545,437.218182 L256,320.04 Z M-165.701818,355.065455 L-159.418182,371.589091 C-143.709091,362.163636 -134.865455,371.589091 -134.865455,371.589091 L-134.981818,382.178182 C-181.76,390.44 -169.890909,433.727273 -169.890909,433.727273 C-165.12,450.716364 -149.76,450.134545 -149.76,450.134545 L-114.734545,450.134545 L-114.036364,371.356364 C-119.505455,334.701818 -165.701818,355.065455 -165.701818,355.065455 Z M-134.981818,435.007273 C-134.981818,435.007273 -151.970909,439.08 -153.832727,422.556364 C-153.832727,422.556364 -153.483636,396.956364 -134.4,399.749091 L-134.981818,435.007273 L-134.981818,435.007273 Z" id="Shape" fill-opacity="0.5" fill="#FFFFFF" sketch:type="MSShapeGroup" mask="url(#mask-4)"></path>
            </g>
            <g id="R" sketch:type="MSLayerGroup">
                <mask id="mask-6" sketch:name="Mask" fill="white">
                    <use xlink:href="#path-5"></use>
                </mask>
                <use id="Mask" fill="#FF3355" sketch:type="MSShapeGroup" xlink:href="#path-5"></use>
                <path d="M519.912727,358.090909 C498.152727,358.44 479.418182,376.825455 478.021818,398.934545 C476.741818,421.16 494.429091,440.941818 517.469091,443.269091 C540.625455,445.596364 559.36,427.210909 559.36,402.425455 C559.36,377.523636 541.672727,357.741818 519.912727,358.090909 L519.912727,358.090909 Z M535.505455,404.054545 C534.574545,415.574545 527.36,421.858182 522.589091,422.323636 C510.603636,423.72 500.363636,412.898182 501.061818,399.050909 C501.76,385.203636 507.345455,376.592727 518.632727,376.36 C529.92,376.127273 536.785455,389.043636 535.505455,404.054545 Z M605.44,360.301818 C583.68,359.952727 565.992727,379.734545 565.992727,404.636364 C565.992727,429.538182 584.727273,447.807273 607.883636,445.48 C631.04,443.152727 648.727273,423.370909 647.330909,401.145455 C646.050909,379.036364 627.316364,360.767273 605.44,360.301818 Z M602.763636,424.650909 C597.992727,424.069091 590.894545,417.785455 589.847273,406.381818 C588.567273,391.370909 595.432727,378.454545 606.72,378.687273 C618.007273,378.92 623.592727,387.530909 624.290909,401.378182 C624.989091,415.109091 614.749091,426.047273 602.763636,424.650909 Z M352,339.589091 L328.610909,330.629091 L282.996364,374.149091 L282.996364,319.807273 L256,326.672727 L256,454.323636 L282.996364,455.254545 L282.763636,410.570909 L299.403636,394.512727 L316.974545,455.254545 L340.829091,455.254545 L318.836364,376.010909 L352,339.589091 Z M426.123636,354.250909 L425.658182,297 L402.618182,303.050909 L406.341818,444.549091 L429.032727,445.363636 L427.752727,372.287273 C432.756364,370.076364 449.163636,365.538182 449.745455,383.574545 L451.956364,409.290909 L453.469091,445.48 L477.207273,445.48 L468.247273,382.992727 C464.64,346.454545 451.258182,346.338182 426.123636,354.250909 Z M739.141818,446.178182 L732.509091,461.770909 L746.705455,471.545455 L760.669091,463.283636 L754.734545,446.178182 L739.141818,446.178182 Z M678.865455,319.807273 L660.829091,312.36 L660.829091,349.712727 L640.698182,349.014545 L644.538182,375.545455 L660.829091,375.545455 L661.992727,438.730909 C661.992727,438.730909 659.432727,461.421818 694.109091,456.301818 C694.109091,456.301818 704.930909,453.043636 704.581818,445.48 L704.581818,420.578182 C704.581818,420.578182 697.250909,424.883636 689.338182,424.883636 C681.425455,424.883636 681.309091,421.043636 681.309091,421.043636 L679.214545,372.170909 L704.465455,370.774545 L704.465455,354.6 L678.516364,352.854545 L678.865455,319.807273 Z M768,320.04 L720.290909,310.963636 L749.614545,437.218182 L768,320.04 Z M346.298182,355.065455 L352.581818,371.589091 C368.290909,362.163636 377.134545,371.589091 377.134545,371.589091 L377.018182,382.178182 C330.24,390.44 342.109091,433.727273 342.109091,433.727273 C346.88,450.716364 362.24,450.134545 362.24,450.134545 L397.265455,450.134545 L397.963636,371.356364 C392.494545,334.701818 346.298182,355.065455 346.298182,355.065455 Z M377.018182,435.007273 C377.018182,435.007273 360.029091,439.08 358.167273,422.556364 C358.167273,422.556364 358.516364,396.956364 377.6,399.749091 L377.018182,435.007273 L377.018182,435.007273 Z" id="Shape" fill-opacity="0.5" fill="#FFFFFF" sketch:type="MSShapeGroup" mask="url(#mask-6)"></path>
            </g>
        </g>
    </g>
</svg>