<?xml version="1.0" encoding="UTF-8" standalone="no"?>
<svg width="1024px" height="768px" viewBox="0 0 1024 768" version="1.1" xmlns="http://www.w3.org/2000/svg" xmlns:xlink="http://www.w3.org/1999/xlink" xmlns:sketch="http://www.bohemiancoding.com/sketch/ns">
    <!-- Generator: Sketch 3.4.3 (16044) - http://www.bohemiancoding.com/sketch -->
    <title>Artboard 1</title>
    <desc>Created with Sketch.</desc>
    <defs>
        <rect id="path-1" x="0" y="0" width="512" height="384"></rect>
    </defs>
    <g id="Page-1" stroke="none" stroke-width="1" fill="none" fill-rule="evenodd" sketch:type="MSPage">
        <g id="Artboard-1" sketch:type="MSArtboardGroup">
            <g id="R" sketch:type="MSLayerGroup">
                <mask id="mask-2" sketch:name="Mask" fill="white">
                    <use xlink:href="#path-1"></use>
                </mask>
                <use id="Mask" fill="#FF3355" sketch:type="MSShapeGroup" xlink:href="#path-1"></use>
                <path d="M519.912727,358.090909 C498.152727,358.44 479.418182,376.825455 478.021818,398.934545 C476.741818,421.16 494.429091,440.941818 517.469091,443.269091 C540.625455,445.596364 559.36,427.210909 559.36,402.425455 C559.36,377.523636 541.672727,357.741818 519.912727,358.090909 L519.912727,358.090909 Z M535.505455,404.054545 C534.574545,415.574545 527.36,421.858182 522.589091,422.323636 C510.603636,423.72 500.363636,412.898182 501.061818,399.050909 C501.76,385.203636 507.345455,376.592727 518.632727,376.36 C529.92,376.127273 536.785455,389.043636 535.505455,404.054545 Z M605.44,360.301818 C583.68,359.952727 565.992727,379.734545 565.992727,404.636364 C565.992727,429.538182 584.727273,447.807273 607.883636,445.48 C631.04,443.152727 648.727273,423.370909 647.330909,401.145455 C646.050909,379.036364 627.316364,360.767273 605.44,360.301818 Z M602.763636,424.650909 C597.992727,424.069091 590.894545,417.785455 589.847273,406.381818 C588.567273,391.370909 595.432727,378.454545 606.72,378.687273 C618.007273,378.92 623.592727,387.530909 624.290909,401.378182 C624.989091,415.109091 614.749091,426.047273 602.763636,424.650909 Z M352,339.589091 L328.610909,330.629091 L282.996364,374.149091 L282.996364,319.807273 L256,326.672727 L256,454.323636 L282.996364,455.254545 L282.763636,410.570909 L299.403636,394.512727 L316.974545,455.254545 L340.829091,455.254545 L318.836364,376.010909 L352,339.589091 Z M426.123636,354.250909 L425.658182,297 L402.618182,303.050909 L406.341818,444.549091 L429.032727,445.363636 L427.752727,372.287273 C432.756364,370.076364 449.163636,365.538182 449.745455,383.574545 L451.956364,409.290909 L453.469091,445.48 L477.207273,445.48 L468.247273,382.992727 C464.64,346.454545 451.258182,346.338182 426.123636,354.250909 Z M739.141818,446.178182 L732.509091,461.770909 L746.705455,471.545455 L760.669091,463.283636 L754.734545,446.178182 L739.141818,446.178182 Z M678.865455,319.807273 L660.829091,312.36 L660.829091,349.712727 L640.698182,349.014545 L644.538182,375.545455 L660.829091,375.545455 L661.992727,438.730909 C661.992727,438.730909 659.432727,461.421818 694.109091,456.301818 C694.109091,456.301818 704.930909,453.043636 704.581818,445.48 L704.581818,420.578182 C704.581818,420.578182 697.250909,424.883636 689.338182,424.883636 C681.425455,424.883636 681.309091,421.043636 681.309091,421.043636 L679.214545,372.170909 L704.465455,370.774545 L704.465455,354.6 L678.516364,352.854545 L678.865455,319.807273 Z M768,320.04 L720.290909,310.963636 L749.614545,437.218182 L768,320.04 Z M346.298182,355.065455 L352.581818,371.589091 C368.290909,362.163636 377.134545,371.589091 377.134545,371.589091 L377.018182,382.178182 C330.24,390.44 342.109091,433.727273 342.109091,433.727273 C346.88,450.716364 362.24,450.134545 362.24,450.134545 L397.265455,450.134545 L397.963636,371.356364 C392.494545,334.701818 346.298182,355.065455 346.298182,355.065455 Z M377.018182,435.007273 C377.018182,435.007273 360.029091,439.08 358.167273,422.556364 C358.167273,422.556364 358.516364,396.956364 377.6,399.749091 L377.018182,435.007273 L377.018182,435.007273 Z" id="Shape" fill-opacity="0.5" fill="#FFFFFF" sketch:type="MSShapeGroup" mask="url(#mask-2)"></path>
            </g>
        </g>
    </g>
</svg>